<mxfile host="Electron" agent="Mozilla/5.0 (Windows NT 10.0; Win64; x64) AppleWebKit/537.36 (KHTML, like Gecko) draw.io/27.0.9 Chrome/134.0.6998.205 Electron/35.4.0 Safari/537.36" version="27.0.9">
  <diagram name="Страница — 1" id="BAEf1QyZqhu5GsM_cT0-">
    <mxGraphModel dx="2167" dy="1116" grid="1" gridSize="10" guides="1" tooltips="1" connect="1" arrows="1" fold="1" page="1" pageScale="1" pageWidth="827" pageHeight="1169" math="0" shadow="0">
      <root>
        <mxCell id="0" />
        <mxCell id="1" parent="0" />
        <mxCell id="maxkhivgJX0f36YaePwU-10" style="edgeStyle=orthogonalEdgeStyle;rounded=0;orthogonalLoop=1;jettySize=auto;html=1;entryX=0.5;entryY=0;entryDx=0;entryDy=0;" parent="1" source="maxkhivgJX0f36YaePwU-2" target="maxkhivgJX0f36YaePwU-3" edge="1">
          <mxGeometry relative="1" as="geometry" />
        </mxCell>
        <mxCell id="maxkhivgJX0f36YaePwU-2" value="" style="ellipse;whiteSpace=wrap;html=1;aspect=fixed;fillColor=#000000;" parent="1" vertex="1">
          <mxGeometry x="670" y="80" width="20" height="20" as="geometry" />
        </mxCell>
        <mxCell id="maxkhivgJX0f36YaePwU-15" style="edgeStyle=orthogonalEdgeStyle;rounded=0;orthogonalLoop=1;jettySize=auto;html=1;entryX=0.5;entryY=0;entryDx=0;entryDy=0;" parent="1" source="maxkhivgJX0f36YaePwU-3" target="maxkhivgJX0f36YaePwU-14" edge="1">
          <mxGeometry relative="1" as="geometry" />
        </mxCell>
        <mxCell id="maxkhivgJX0f36YaePwU-3" value="Tickettyp wählen" style="rounded=1;whiteSpace=wrap;html=1;" parent="1" vertex="1">
          <mxGeometry x="620" y="120" width="120" height="33" as="geometry" />
        </mxCell>
        <mxCell id="maxkhivgJX0f36YaePwU-25" style="edgeStyle=orthogonalEdgeStyle;rounded=0;orthogonalLoop=1;jettySize=auto;html=1;" parent="1" source="maxkhivgJX0f36YaePwU-4" edge="1">
          <mxGeometry relative="1" as="geometry">
            <mxPoint x="590" y="310" as="targetPoint" />
          </mxGeometry>
        </mxCell>
        <mxCell id="maxkhivgJX0f36YaePwU-4" value="Einzelfahrtticket gewählt" style="rounded=1;whiteSpace=wrap;html=1;" parent="1" vertex="1">
          <mxGeometry x="530" y="234" width="120" height="40" as="geometry" />
        </mxCell>
        <mxCell id="maxkhivgJX0f36YaePwU-26" style="edgeStyle=orthogonalEdgeStyle;rounded=0;orthogonalLoop=1;jettySize=auto;html=1;" parent="1" source="maxkhivgJX0f36YaePwU-5" edge="1">
          <mxGeometry relative="1" as="geometry">
            <mxPoint x="764" y="310" as="targetPoint" />
          </mxGeometry>
        </mxCell>
        <mxCell id="maxkhivgJX0f36YaePwU-5" value="5-er Karte gewählt" style="rounded=1;whiteSpace=wrap;html=1;" parent="1" vertex="1">
          <mxGeometry x="704" y="234" width="120" height="40" as="geometry" />
        </mxCell>
        <mxCell id="maxkhivgJX0f36YaePwU-16" style="edgeStyle=orthogonalEdgeStyle;rounded=0;orthogonalLoop=1;jettySize=auto;html=1;entryX=0.5;entryY=0;entryDx=0;entryDy=0;exitX=1;exitY=0.5;exitDx=0;exitDy=0;" parent="1" source="maxkhivgJX0f36YaePwU-14" target="maxkhivgJX0f36YaePwU-5" edge="1">
          <mxGeometry relative="1" as="geometry">
            <Array as="points">
              <mxPoint x="764" y="200" />
            </Array>
          </mxGeometry>
        </mxCell>
        <mxCell id="QHkwtEA9k5UQrOAyYu0t-2" value="5er-Karte" style="edgeLabel;html=1;align=center;verticalAlign=middle;resizable=0;points=[];" vertex="1" connectable="0" parent="maxkhivgJX0f36YaePwU-16">
          <mxGeometry x="-0.1091" y="2" relative="1" as="geometry">
            <mxPoint x="24" y="3" as="offset" />
          </mxGeometry>
        </mxCell>
        <mxCell id="maxkhivgJX0f36YaePwU-17" style="edgeStyle=orthogonalEdgeStyle;rounded=0;orthogonalLoop=1;jettySize=auto;html=1;entryX=0.5;entryY=0;entryDx=0;entryDy=0;exitX=0;exitY=0.5;exitDx=0;exitDy=0;" parent="1" source="maxkhivgJX0f36YaePwU-14" target="maxkhivgJX0f36YaePwU-4" edge="1">
          <mxGeometry relative="1" as="geometry">
            <Array as="points">
              <mxPoint x="590" y="200" />
            </Array>
          </mxGeometry>
        </mxCell>
        <mxCell id="QHkwtEA9k5UQrOAyYu0t-1" value="Einzelfahrt" style="edgeLabel;html=1;align=center;verticalAlign=middle;resizable=0;points=[];" vertex="1" connectable="0" parent="maxkhivgJX0f36YaePwU-17">
          <mxGeometry x="-0.2811" relative="1" as="geometry">
            <mxPoint x="-30" y="10" as="offset" />
          </mxGeometry>
        </mxCell>
        <mxCell id="maxkhivgJX0f36YaePwU-14" value="Einzelfahrt oder 5er-Karte?" style="shape=hexagon;perimeter=hexagonPerimeter2;whiteSpace=wrap;html=1;fixedSize=1;" parent="1" vertex="1">
          <mxGeometry x="610" y="180" width="140" height="40" as="geometry" />
        </mxCell>
        <mxCell id="maxkhivgJX0f36YaePwU-39" style="edgeStyle=orthogonalEdgeStyle;rounded=0;orthogonalLoop=1;jettySize=auto;html=1;entryX=1;entryY=0.5;entryDx=0;entryDy=0;" parent="1" source="maxkhivgJX0f36YaePwU-19" target="maxkhivgJX0f36YaePwU-36" edge="1">
          <mxGeometry relative="1" as="geometry" />
        </mxCell>
        <mxCell id="maxkhivgJX0f36YaePwU-19" value="Anzahl 5-er Karten wählen" style="rounded=1;whiteSpace=wrap;html=1;" parent="1" vertex="1">
          <mxGeometry x="704" y="310" width="120" height="50" as="geometry" />
        </mxCell>
        <mxCell id="maxkhivgJX0f36YaePwU-40" style="edgeStyle=orthogonalEdgeStyle;rounded=0;orthogonalLoop=1;jettySize=auto;html=1;entryX=0;entryY=0.5;entryDx=0;entryDy=0;exitX=0.5;exitY=1;exitDx=0;exitDy=0;" parent="1" source="maxkhivgJX0f36YaePwU-20" target="maxkhivgJX0f36YaePwU-36" edge="1">
          <mxGeometry relative="1" as="geometry">
            <Array as="points">
              <mxPoint x="590" y="385" />
            </Array>
          </mxGeometry>
        </mxCell>
        <mxCell id="maxkhivgJX0f36YaePwU-20" value="Anzahl Einzelnfahrttickets wählen" style="rounded=1;whiteSpace=wrap;html=1;" parent="1" vertex="1">
          <mxGeometry x="530" y="310" width="120" height="50" as="geometry" />
        </mxCell>
        <mxCell id="maxkhivgJX0f36YaePwU-38" style="edgeStyle=orthogonalEdgeStyle;rounded=0;orthogonalLoop=1;jettySize=auto;html=1;entryX=0.5;entryY=0;entryDx=0;entryDy=0;" parent="1" source="maxkhivgJX0f36YaePwU-36" target="maxkhivgJX0f36YaePwU-37" edge="1">
          <mxGeometry relative="1" as="geometry" />
        </mxCell>
        <mxCell id="maxkhivgJX0f36YaePwU-36" value="" style="rhombus;whiteSpace=wrap;html=1;" parent="1" vertex="1">
          <mxGeometry x="655" y="360" width="50" height="50" as="geometry" />
        </mxCell>
        <mxCell id="maxkhivgJX0f36YaePwU-42" style="edgeStyle=orthogonalEdgeStyle;rounded=0;orthogonalLoop=1;jettySize=auto;html=1;entryX=0.5;entryY=0;entryDx=0;entryDy=0;" parent="1" source="maxkhivgJX0f36YaePwU-37" target="maxkhivgJX0f36YaePwU-41" edge="1">
          <mxGeometry relative="1" as="geometry">
            <mxPoint x="680" y="510" as="targetPoint" />
          </mxGeometry>
        </mxCell>
        <mxCell id="maxkhivgJX0f36YaePwU-37" value="" style="rhombus;whiteSpace=wrap;html=1;" parent="1" vertex="1">
          <mxGeometry x="655" y="430" width="50" height="50" as="geometry" />
        </mxCell>
        <mxCell id="maxkhivgJX0f36YaePwU-49" style="edgeStyle=orthogonalEdgeStyle;rounded=0;orthogonalLoop=1;jettySize=auto;html=1;" parent="1" source="maxkhivgJX0f36YaePwU-41" edge="1">
          <mxGeometry relative="1" as="geometry">
            <mxPoint x="680" y="560" as="targetPoint" />
          </mxGeometry>
        </mxCell>
        <mxCell id="maxkhivgJX0f36YaePwU-41" value="Coin einwerfen" style="rounded=1;whiteSpace=wrap;html=1;" parent="1" vertex="1">
          <mxGeometry x="620" y="500" width="120" height="40" as="geometry" />
        </mxCell>
        <mxCell id="maxkhivgJX0f36YaePwU-46" style="edgeStyle=orthogonalEdgeStyle;rounded=0;orthogonalLoop=1;jettySize=auto;html=1;exitX=1;exitY=0.5;exitDx=0;exitDy=0;entryX=0.5;entryY=0;entryDx=0;entryDy=0;" parent="1" source="maxkhivgJX0f36YaePwU-43" target="maxkhivgJX0f36YaePwU-45" edge="1">
          <mxGeometry relative="1" as="geometry">
            <Array as="points">
              <mxPoint x="780" y="575" />
            </Array>
            <mxPoint x="780" y="610" as="targetPoint" />
          </mxGeometry>
        </mxCell>
        <mxCell id="QHkwtEA9k5UQrOAyYu0t-8" style="edgeStyle=orthogonalEdgeStyle;rounded=0;orthogonalLoop=1;jettySize=auto;html=1;exitX=0;exitY=0.5;exitDx=0;exitDy=0;entryX=0.5;entryY=0;entryDx=0;entryDy=0;" edge="1" parent="1" source="maxkhivgJX0f36YaePwU-43" target="maxkhivgJX0f36YaePwU-50">
          <mxGeometry relative="1" as="geometry" />
        </mxCell>
        <mxCell id="maxkhivgJX0f36YaePwU-43" value="Coin gültig?" style="shape=hexagon;perimeter=hexagonPerimeter2;whiteSpace=wrap;html=1;fixedSize=1;" parent="1" vertex="1">
          <mxGeometry x="615" y="560" width="130" height="30" as="geometry" />
        </mxCell>
        <mxCell id="maxkhivgJX0f36YaePwU-45" value="Fehlermeldung anzeigen" style="rounded=1;whiteSpace=wrap;html=1;" parent="1" vertex="1">
          <mxGeometry x="720" y="600" width="120" height="40" as="geometry" />
        </mxCell>
        <mxCell id="maxkhivgJX0f36YaePwU-47" value="nein" style="text;html=1;align=center;verticalAlign=middle;whiteSpace=wrap;rounded=0;" parent="1" vertex="1">
          <mxGeometry x="775" y="560" width="52.5" height="30" as="geometry" />
        </mxCell>
        <mxCell id="maxkhivgJX0f36YaePwU-57" style="edgeStyle=orthogonalEdgeStyle;rounded=0;orthogonalLoop=1;jettySize=auto;html=1;entryX=0;entryY=0.5;entryDx=0;entryDy=0;exitX=0.5;exitY=1;exitDx=0;exitDy=0;" parent="1" source="maxkhivgJX0f36YaePwU-50" target="maxkhivgJX0f36YaePwU-55" edge="1">
          <mxGeometry relative="1" as="geometry">
            <Array as="points">
              <mxPoint x="580" y="715" />
            </Array>
          </mxGeometry>
        </mxCell>
        <mxCell id="maxkhivgJX0f36YaePwU-50" value="Bezahlten Betrag aktualisieren&amp;nbsp;" style="rounded=1;whiteSpace=wrap;html=1;" parent="1" vertex="1">
          <mxGeometry x="520" y="600" width="120" height="40" as="geometry" />
        </mxCell>
        <mxCell id="maxkhivgJX0f36YaePwU-56" style="edgeStyle=orthogonalEdgeStyle;rounded=0;orthogonalLoop=1;jettySize=auto;html=1;entryX=1;entryY=0.5;entryDx=0;entryDy=0;" parent="1" source="maxkhivgJX0f36YaePwU-51" target="maxkhivgJX0f36YaePwU-55" edge="1">
          <mxGeometry relative="1" as="geometry">
            <Array as="points">
              <mxPoint x="780" y="715" />
            </Array>
          </mxGeometry>
        </mxCell>
        <mxCell id="maxkhivgJX0f36YaePwU-53" value="ja" style="text;html=1;align=center;verticalAlign=middle;whiteSpace=wrap;rounded=0;" parent="1" vertex="1">
          <mxGeometry x="534" y="560" width="50" height="30" as="geometry" />
        </mxCell>
        <mxCell id="maxkhivgJX0f36YaePwU-59" style="edgeStyle=orthogonalEdgeStyle;rounded=0;orthogonalLoop=1;jettySize=auto;html=1;entryX=0.5;entryY=0;entryDx=0;entryDy=0;" parent="1" source="maxkhivgJX0f36YaePwU-55" target="maxkhivgJX0f36YaePwU-58" edge="1">
          <mxGeometry relative="1" as="geometry" />
        </mxCell>
        <mxCell id="maxkhivgJX0f36YaePwU-55" value="" style="rhombus;whiteSpace=wrap;html=1;" parent="1" vertex="1">
          <mxGeometry x="665" y="690" width="50" height="50" as="geometry" />
        </mxCell>
        <mxCell id="maxkhivgJX0f36YaePwU-60" style="edgeStyle=orthogonalEdgeStyle;rounded=0;orthogonalLoop=1;jettySize=auto;html=1;entryX=1;entryY=0.5;entryDx=0;entryDy=0;exitX=1;exitY=0.5;exitDx=0;exitDy=0;" parent="1" source="maxkhivgJX0f36YaePwU-58" target="maxkhivgJX0f36YaePwU-37" edge="1">
          <mxGeometry relative="1" as="geometry">
            <mxPoint x="940" y="508.6206896551723" as="targetPoint" />
            <Array as="points">
              <mxPoint x="890" y="775" />
              <mxPoint x="890" y="455" />
            </Array>
          </mxGeometry>
        </mxCell>
        <mxCell id="maxkhivgJX0f36YaePwU-63" style="edgeStyle=orthogonalEdgeStyle;rounded=0;orthogonalLoop=1;jettySize=auto;html=1;entryX=0.5;entryY=0;entryDx=0;entryDy=0;" parent="1" source="maxkhivgJX0f36YaePwU-58" target="maxkhivgJX0f36YaePwU-62" edge="1">
          <mxGeometry relative="1" as="geometry">
            <mxPoint x="690" y="890" as="targetPoint" />
          </mxGeometry>
        </mxCell>
        <mxCell id="maxkhivgJX0f36YaePwU-58" value="Gesamtbetrag &amp;lt; Ticketspreis?" style="shape=hexagon;perimeter=hexagonPerimeter2;whiteSpace=wrap;html=1;fixedSize=1;" parent="1" vertex="1">
          <mxGeometry x="597.5" y="760" width="185" height="30" as="geometry" />
        </mxCell>
        <mxCell id="maxkhivgJX0f36YaePwU-61" value="ja" style="text;html=1;align=center;verticalAlign=middle;whiteSpace=wrap;rounded=0;" parent="1" vertex="1">
          <mxGeometry x="775" y="750" width="60" height="30" as="geometry" />
        </mxCell>
        <mxCell id="maxkhivgJX0f36YaePwU-66" style="edgeStyle=orthogonalEdgeStyle;rounded=0;orthogonalLoop=1;jettySize=auto;html=1;" parent="1" source="maxkhivgJX0f36YaePwU-62" edge="1">
          <mxGeometry relative="1" as="geometry">
            <mxPoint x="690" y="890" as="targetPoint" />
          </mxGeometry>
        </mxCell>
        <mxCell id="maxkhivgJX0f36YaePwU-62" value="Ticket mit QR-Code &amp;amp; Zeitstempel drucken" style="rounded=1;whiteSpace=wrap;html=1;" parent="1" vertex="1">
          <mxGeometry x="620" y="820" width="140" height="40" as="geometry" />
        </mxCell>
        <mxCell id="maxkhivgJX0f36YaePwU-64" value="nein" style="text;html=1;align=center;verticalAlign=middle;whiteSpace=wrap;rounded=0;" parent="1" vertex="1">
          <mxGeometry x="700" y="790" width="30" height="30" as="geometry" />
        </mxCell>
        <mxCell id="maxkhivgJX0f36YaePwU-79" style="edgeStyle=orthogonalEdgeStyle;rounded=0;orthogonalLoop=1;jettySize=auto;html=1;entryX=0;entryY=0.5;entryDx=0;entryDy=0;" parent="1" source="maxkhivgJX0f36YaePwU-65" edge="1" target="QHkwtEA9k5UQrOAyYu0t-13">
          <mxGeometry relative="1" as="geometry">
            <mxPoint x="590" y="1030" as="targetPoint" />
            <Array as="points">
              <mxPoint x="600" y="905" />
              <mxPoint x="600" y="1035" />
            </Array>
          </mxGeometry>
        </mxCell>
        <mxCell id="maxkhivgJX0f36YaePwU-65" value="Quittung drucken?" style="shape=hexagon;perimeter=hexagonPerimeter2;whiteSpace=wrap;html=1;fixedSize=1;" parent="1" vertex="1">
          <mxGeometry x="617.5" y="890" width="145" height="30" as="geometry" />
        </mxCell>
        <mxCell id="QHkwtEA9k5UQrOAyYu0t-17" style="edgeStyle=orthogonalEdgeStyle;rounded=0;orthogonalLoop=1;jettySize=auto;html=1;exitX=0.5;exitY=1;exitDx=0;exitDy=0;entryX=0.5;entryY=0;entryDx=0;entryDy=0;" edge="1" parent="1" source="maxkhivgJX0f36YaePwU-68" target="QHkwtEA9k5UQrOAyYu0t-16">
          <mxGeometry relative="1" as="geometry" />
        </mxCell>
        <mxCell id="maxkhivgJX0f36YaePwU-68" value="Daten an die Überwachungszentrale senden" style="rounded=1;whiteSpace=wrap;html=1;" parent="1" vertex="1">
          <mxGeometry x="610" y="1080" width="160" height="60" as="geometry" />
        </mxCell>
        <mxCell id="QHkwtEA9k5UQrOAyYu0t-14" style="edgeStyle=orthogonalEdgeStyle;rounded=0;orthogonalLoop=1;jettySize=auto;html=1;exitX=0.5;exitY=1;exitDx=0;exitDy=0;entryX=0.5;entryY=0;entryDx=0;entryDy=0;" edge="1" parent="1" source="maxkhivgJX0f36YaePwU-72" target="QHkwtEA9k5UQrOAyYu0t-13">
          <mxGeometry relative="1" as="geometry" />
        </mxCell>
        <mxCell id="maxkhivgJX0f36YaePwU-72" value="Quittung drucken" style="rounded=1;whiteSpace=wrap;html=1;" parent="1" vertex="1">
          <mxGeometry x="630" y="940" width="120" height="40" as="geometry" />
        </mxCell>
        <mxCell id="maxkhivgJX0f36YaePwU-77" value="nein" style="text;html=1;align=center;verticalAlign=middle;whiteSpace=wrap;rounded=0;" parent="1" vertex="1">
          <mxGeometry x="555" y="900" width="60" height="30" as="geometry" />
        </mxCell>
        <mxCell id="maxkhivgJX0f36YaePwU-83" value="" style="endArrow=classic;html=1;rounded=0;entryX=0.5;entryY=0;entryDx=0;entryDy=0;exitX=0.5;exitY=1;exitDx=0;exitDy=0;" parent="1" target="maxkhivgJX0f36YaePwU-68" edge="1" source="QHkwtEA9k5UQrOAyYu0t-13">
          <mxGeometry width="50" height="50" relative="1" as="geometry">
            <mxPoint x="700" y="1190" as="sourcePoint" />
            <mxPoint x="800" y="1220" as="targetPoint" />
          </mxGeometry>
        </mxCell>
        <mxCell id="QHkwtEA9k5UQrOAyYu0t-9" value="" style="edgeStyle=orthogonalEdgeStyle;rounded=0;orthogonalLoop=1;jettySize=auto;html=1;" edge="1" parent="1" source="maxkhivgJX0f36YaePwU-45" target="maxkhivgJX0f36YaePwU-51">
          <mxGeometry relative="1" as="geometry">
            <mxPoint x="780" y="640" as="sourcePoint" />
            <mxPoint x="780" y="700" as="targetPoint" />
          </mxGeometry>
        </mxCell>
        <mxCell id="maxkhivgJX0f36YaePwU-51" value="Coin zurückgeben" style="rounded=1;whiteSpace=wrap;html=1;" parent="1" vertex="1">
          <mxGeometry x="720" y="660" width="120" height="30" as="geometry" />
        </mxCell>
        <mxCell id="QHkwtEA9k5UQrOAyYu0t-11" style="edgeStyle=orthogonalEdgeStyle;rounded=0;orthogonalLoop=1;jettySize=auto;html=1;exitX=0.5;exitY=1;exitDx=0;exitDy=0;entryX=0.162;entryY=0.667;entryDx=0;entryDy=0;entryPerimeter=0;" edge="1" parent="1" source="maxkhivgJX0f36YaePwU-65">
          <mxGeometry relative="1" as="geometry">
            <mxPoint x="689.72" y="940.01" as="targetPoint" />
          </mxGeometry>
        </mxCell>
        <mxCell id="QHkwtEA9k5UQrOAyYu0t-12" value="ja" style="edgeLabel;html=1;align=center;verticalAlign=middle;resizable=0;points=[];" vertex="1" connectable="0" parent="QHkwtEA9k5UQrOAyYu0t-11">
          <mxGeometry x="-0.1941" y="3" relative="1" as="geometry">
            <mxPoint x="11" as="offset" />
          </mxGeometry>
        </mxCell>
        <mxCell id="QHkwtEA9k5UQrOAyYu0t-13" value="" style="rhombus;whiteSpace=wrap;html=1;" vertex="1" parent="1">
          <mxGeometry x="665" y="1010" width="50" height="50" as="geometry" />
        </mxCell>
        <mxCell id="QHkwtEA9k5UQrOAyYu0t-16" value="" style="ellipse;html=1;shape=endState;fillColor=strokeColor;" vertex="1" parent="1">
          <mxGeometry x="675" y="1160" width="30" height="30" as="geometry" />
        </mxCell>
      </root>
    </mxGraphModel>
  </diagram>
</mxfile>
